<svg xmlns="http://www.w3.org/2000/svg" viewBox="0 0 1040 372" width="1040" height="372" class="fig" role="img" aria-label="DiT BLOĞU  × 6, 4 ADIMLI ÖRNEKLEME (DMD2 ÖĞRENCİSİ)"><title>DiT BLOĞU  × 6, 4 ADIMLI ÖRNEKLEME (DMD2 ÖĞRENCİSİ)</title><style>
.fig text { font-family: Archivo, 'Helvetica Neue', Arial, sans-serif; fill: #151515; }
.fig .t { font-size: 13.5px; font-weight: 650; }
.fig .s { font-size: 11.5px; fill: #3c403e; }
.fig .p { font-family: 'Courier Prime', 'Courier New', monospace; font-size: 11px; fill: #5b615e; }
.fig .m { font-family: 'STIX Two Text', 'Times New Roman', Times, serif; font-style: italic; font-size: 14px; }
.fig .mono { font-family: 'Courier Prime', 'Courier New', monospace; font-size: 12.5px; }
.fig .cap { font-size: 11px; font-weight: 700; letter-spacing: .12em; fill: #5b615e; }
.fig .box { stroke: #151515; stroke-width: 1.1; }
.fig .model { fill: #e3ebe7; }
.fig .dec { fill: #ece8df; }
.fig .rules { fill: #ffffff; }
.fig .io { fill: #ffffff; stroke-dasharray: 0; }
.fig .host { fill: #ffffff; stroke-dasharray: 5 4; }
.fig .op { fill: #ffffff; }
.fig .arrow { stroke: #151515; stroke-width: 1.2; fill: none; marker-end: url(#ah); }
.fig .dash { stroke: #151515; stroke-width: 1.1; fill: none; stroke-dasharray: 4 3; marker-end: url(#ah); }
.fig .axis { stroke: #151515; stroke-width: 1.2; }
</style><defs><marker id="ah" viewBox="0 0 10 10" refX="9" refY="5" markerWidth="7" markerHeight="7" orient="auto-start-reverse"><path d="M0 1 L9 5 L0 9 z" fill="#151515"/></marker></defs><rect width="1040" height="372" fill="#ffffff"/><text x="16" y="22" class="cap" text-anchor="start">DiT BLOĞU  × 6</text><rect x="16" y="52" width="112" height="40" rx="3" class="box op"/><text x="72.0" y="77" class="m" text-anchor="middle">x<tspan baseline-shift="sub" font-size="70%">t</tspan>W<tspan baseline-shift="sub" font-size="70%">in</tspan> + c</text><rect x="156" y="52" width="50" height="40" rx="3" class="box op"/><text x="181.0" y="77" class="t" text-anchor="middle">LN</text><rect x="232" y="52" width="112" height="40" rx="3" class="box op"/><text x="288.0" y="77" class="m" text-anchor="middle">(1+γ<tspan baseline-shift="sub" font-size="70%">1</tspan>)·+β<tspan baseline-shift="sub" font-size="70%">1</tspan></text><rect x="370" y="52" width="112" height="40" rx="3" class="box op"/><text x="426.0" y="77" class="t" text-anchor="middle">MHSA · RoPE</text><rect x="508" y="52" width="56" height="40" rx="3" class="box op"/><text x="536.0" y="77" class="m" text-anchor="middle">α<tspan baseline-shift="sub" font-size="70%">1</tspan> ⊙</text><circle cx="600" cy="72" r="12" class="box op"/><path d="M594 72 H606 M600 66 V78" stroke="#151515" stroke-width="1.3"/><path d="M206 72 L231 72" class="arrow"/><path d="M344 72 L369 72" class="arrow"/><path d="M482 72 L507 72" class="arrow"/><path d="M564 72 L587 72" class="arrow"/><rect x="156" y="170" width="50" height="40" rx="3" class="box op"/><text x="181.0" y="195" class="t" text-anchor="middle">LN</text><rect x="232" y="170" width="112" height="40" rx="3" class="box op"/><text x="288.0" y="195" class="m" text-anchor="middle">(1+γ<tspan baseline-shift="sub" font-size="70%">2</tspan>)·+β<tspan baseline-shift="sub" font-size="70%">2</tspan></text><rect x="370" y="170" width="112" height="40" rx="3" class="box op"/><text x="426.0" y="195" class="t" text-anchor="middle">SwiGLU</text><rect x="508" y="170" width="56" height="40" rx="3" class="box op"/><text x="536.0" y="195" class="m" text-anchor="middle">α<tspan baseline-shift="sub" font-size="70%">2</tspan> ⊙</text><circle cx="600" cy="190" r="12" class="box op"/><path d="M594 190 H606 M600 184 V196" stroke="#151515" stroke-width="1.3"/><path d="M206 190 L231 190" class="arrow"/><path d="M344 190 L369 190" class="arrow"/><path d="M482 190 L507 190" class="arrow"/><path d="M564 190 L587 190" class="arrow"/><path d="M128 72 L155 72" class="arrow"/><path d="M142 72 L142 34 L600 34 L600 59" class="arrow"/><path d="M600 84 L600 128 L142 128 L142 190 L155 190" class="arrow"/><path d="M142 190 L142 236 L600 236 L600 203" class="arrow"/><path d="M612 190 L650 190" class="arrow"/><text x="656" y="195" class="m" text-anchor="start">v<tspan baseline-shift="sub" font-size="70%">θ</tspan></text><text x="156" y="270" class="s" text-anchor="start">6 bloktan sonra: LN, adaLN, W_out</text><text x="16" y="302" class="cap" text-anchor="start">adaLN-ZERO MODÜLASYONU (ORTAK)</text><rect x="16" y="316" width="40" height="40" rx="3" class="box op"/><text x="36.0" y="341" class="m" text-anchor="middle">t</text><rect x="78" y="316" width="116" height="40" rx="3" class="box op"/><text x="136.0" y="341" class="t" text-anchor="middle">zaman gömmesi</text><circle cx="220" cy="336" r="12" class="box op"/><path d="M214 336 H226 M220 330 V342" stroke="#151515" stroke-width="1.3"/><text x="220" y="366" class="s" text-anchor="middle">konuşmacı g</text><rect x="246" y="316" width="120" height="40" rx="3" class="box op"/><text x="306.0" y="341" class="t" text-anchor="middle">Linear (ortak)</text><rect x="390" y="316" width="110" height="40" rx="3" class="box op"/><text x="445.0" y="341" class="t" text-anchor="middle">+ blok ofseti</text><path d="M56 336 L77 336" class="arrow"/><path d="M194 336 L207 336" class="arrow"/><path d="M232 336 L245 336" class="arrow"/><path d="M366 336 L389 336" class="arrow"/><path d="M500 336 L528 336" class="arrow"/><text x="534" y="341" class="m" text-anchor="start">(β<tspan baseline-shift="sub" font-size="70%">1</tspan>, γ<tspan baseline-shift="sub" font-size="70%">1</tspan>, α<tspan baseline-shift="sub" font-size="70%">1</tspan>, β<tspan baseline-shift="sub" font-size="70%">2</tspan>, γ<tspan baseline-shift="sub" font-size="70%">2</tspan>, α<tspan baseline-shift="sub" font-size="70%">2</tspan>)</text><path d="M560 322 L560 262" class="dash"/><text x="568" y="296" class="s" text-anchor="start">her bloğa</text><text x="704" y="22" class="cap" text-anchor="start">4 ADIMLI ÖRNEKLEME (DMD2 ÖĞRENCİSİ)</text><line x1="724" y1="196" x2="1004" y2="196" class="axis"/><line x1="724" y1="191" x2="724" y2="201" class="axis"/><text x="724" y="218" class="m" text-anchor="middle">t = 0</text><line x1="794.0" y1="191" x2="794.0" y2="201" class="axis"/><text x="794.0" y="218" class="m" text-anchor="middle">¼</text><line x1="864.0" y1="191" x2="864.0" y2="201" class="axis"/><text x="864.0" y="218" class="m" text-anchor="middle">½</text><line x1="934.0" y1="191" x2="934.0" y2="201" class="axis"/><text x="934.0" y="218" class="m" text-anchor="middle">¾</text><line x1="1004" y1="191" x2="1004" y2="201" class="axis"/><text x="1004" y="218" class="m" text-anchor="middle">t = 1</text><path d="M 724 189 C 724 78, 1004 78, 1004 187" class="arrow"/><path d="M 794.0 189 C 794.0 104, 1004 104, 1004 187" class="arrow"/><path d="M 864.0 189 C 864.0 130, 1004 130, 1004 187" class="arrow"/><path d="M 934.0 189 C 934.0 156, 1004 156, 1004 187" class="arrow"/><path d="M 1004 230 C 1004 286.0, 794.0 286.0, 794.0 232" class="dash"/><path d="M 1004 230 C 1004 276.0, 864.0 276.0, 864.0 232" class="dash"/><path d="M 1004 230 C 1004 266.0, 934.0 266.0, 934.0 232" class="dash"/><text x="704" y="60" class="s" text-anchor="start">tahmin:</text><text x="704" y="78" class="m" text-anchor="start">x̂<tspan baseline-shift="sub" font-size="70%">1</tspan> = x<tspan baseline-shift="sub" font-size="70%">t</tspan> + (1 − t)·v<tspan baseline-shift="sub" font-size="70%">θ</tspan>(x<tspan baseline-shift="sub" font-size="70%">t</tspan>, c, t)</text><text x="704" y="318" class="s" text-anchor="start">yeniden gürültü:</text><text x="704" y="338" class="m" text-anchor="start">x<tspan baseline-shift="sub" font-size="70%">t′</tspan> = (1 − t′)·ε + t′·x̂<tspan baseline-shift="sub" font-size="70%">1</tspan>,   ε ∼ N(0, I)</text></svg>